<?xml version="1.0" encoding="utf-8"?>
<!-- Generator: Adobe Illustrator 23.0.2, SVG Export Plug-In . SVG Version: 6.00 Build 0)  -->
<svg version="1.1" id="Layer_1" xmlns="http://www.w3.org/2000/svg" xmlns:xlink="http://www.w3.org/1999/xlink" x="0px" y="0px"
	 viewBox="0 0 298.19 63.02" style="enable-background:new 0 0 298.19 63.02;" xml:space="preserve">
<style type="text/css">
	.st0{fill:#E82D2D;}
	.st1{fill:#FFFFFF;}
</style>
<g>
	<path class="st0" d="M8.04,43.07c5.8,5.63,12.74,7.91,18.5,7.91c6.46,0.04,11.38-2.86,11.38-7.12c0-11.25-37.27-2.37-37.27-25.09
		c0-12.52,10.28-18.72,22.41-18.72c7.73,0,16.22,2.51,23.2,7.47l-7.47,9.14c-4-2.94-10.37-4.75-15.69-4.75
		c-5.23,0-9.45,1.71-9.45,5.89c0,11.87,37.27,1.54,37.27,26.02c0,11.03-10.55,19.16-23.99,19.16C18.5,62.97,8.88,59.77,0,52.03
		L8.04,43.07z"/>
	<path class="st0" d="M90.79,0l24.96,63.02h-12.96l-3.82-9.54h-29.4l-3.78,9.54H52.78L77.78,0H90.79z M74.27,41.57h20l-9.98-26.24
		L74.27,41.57z"/>
	<path class="st0" d="M127.46,43.07c5.8,5.63,12.74,7.91,18.5,7.91c6.46,0.04,11.38-2.86,11.38-7.12c0-11.25-37.27-2.37-37.27-25.09
		c0-12.52,10.28-18.72,22.41-18.72c7.73,0,16.22,2.51,23.2,7.47l-7.47,9.14c-4-2.94-10.37-4.75-15.69-4.75
		c-5.23,0-9.45,1.71-9.45,5.89c0,11.87,37.27,1.54,37.27,26.02c0,11.03-10.55,19.16-23.99,19.16c-8.44,0-18.06-3.21-26.94-10.94
		L127.46,43.07z"/>
	<path class="st1" d="M219.92,63.02l-16.88-29.05h-18.63v29.05h-5.23V0h26.1c9.18,0,17.09,7.25,17.09,17.01
		c0,8-5.4,14.68-13.67,16.57l17.14,29.44H219.92z M184.41,29.09h20.44c6.28,0,12.35-5.01,12.35-12.09c0-6.37-5.4-12-12.35-12h-20.44
		V29.09z"/>
	<path class="st1" d="M236.47,0h5.23v63.02h-5.23V0z"/>
	<path class="st1" d="M281.1,0c9.27,0.13,17.09,7.12,17.09,17.01c0,9.23-7.47,16.96-17.09,16.96h-20.88v29.05h-5.19V0H281.1z
		 M280.7,29.09c6.29,0,12.35-5.01,12.35-12.09c0-6.37-5.41-12-12.35-12h-20.48v24.08H280.7z"/>
</g>
</svg>
