<?xml version="1.0" encoding="utf-8"?>
<!-- Generator: Adobe Illustrator 23.0.2, SVG Export Plug-In . SVG Version: 6.00 Build 0)  -->
<svg version="1.1" id="Layer_1" xmlns="http://www.w3.org/2000/svg" xmlns:xlink="http://www.w3.org/1999/xlink" x="0px" y="0px"
	 viewBox="0 0 85 103" style="enable-background:new 0 0 85 103;" xml:space="preserve">
<style type="text/css">
	.st0{fill:#E82D2D;}
	.st1{fill:#FFFFFF;}
</style>
<g>
	<path class="st0" d="M42.62,0C32.56,0.34,28.4,3.71,23.78,12.87c-1.97,3.91-3.23,8.18-5.21,12.07c-2.02,3.97-4.42,7.77-6.87,11.5
		c-3.42,5.21-2.99,10.8,1.64,14.87c3.58,3.14,7.46,5.94,11.26,8.82c0.36,0.28,1.26,0.52,1.63,0.11c0.34-0.37,0.02-1.1-0.22-1.49
		c-1.37-2.17-2.8-4.31-4.25-6.42c-2.06-2.99-3.03-6.22-1.76-9.73c2.31-6.39,4.66-12.77,7.25-19.04c0.72-1.73,2.13-3.42,3.66-4.52
		c4.84-3.51,10.23-5.26,16.21-3.41c4.43,1.38,8.78,3.31,10.76,7.84c2.71,6.23,5.01,12.65,7.31,19.04c1.07,2.98,0.62,5.87-1.33,8.53
		c-1.77,2.41-3.37,4.95-4.97,7.48c-0.3,0.47-0.76,1.33-0.34,1.77c0.43,0.44,1.35,0.01,1.79-0.31c3.3-2.43,6.62-4.84,9.78-7.45
		c6.02-4.96,7.06-10.1,3.45-15.88c-4.73-7.57-8.71-15.48-12.27-23.7C57.24,3.61,52.78,0.41,42.62,0z"/>
	<path class="st1" d="M54.62,37.28c0,0-0.01,0.01-0.01,0.01c-0.96,0.62-2.05,1.04-3.08,1.55c-1.08,0.52-1.84,0.17-2.41-0.84
		c-0.63-1.13-0.65-1.97,0.88-2.22c1.31-0.22,2.62-0.44,4.29-0.72l0.15,0.08C55.23,35.58,55.38,36.77,54.62,37.28z"/>
	<path class="st1" d="M36.11,37.14c-0.38,1.04-0.93,2.41-2.42,1.95c-1.38-0.42-2.68-1.16-3.94-1.89c-0.37-0.21-0.76-1.01-0.66-1.29
		c0.29-0.85,1.11-0.96,1.11-0.96c1.78,0.02,3.1,0.4,4.41,0.67C35.38,35.78,36.56,35.9,36.11,37.14z"/>
	<path class="st0" d="M42.46,103c0.47-0.2,0.95-0.32,1.33-0.58c4.5-3.15,9.06-6.23,13.47-9.5c10.88-8.05,18.72-18.72,25.52-30.25
		c0.84-1.42,1.63-2.89,2.15-4.44c0.21-0.63-0.14-1.82-0.66-2.23c-0.49-0.39-1.67-0.37-2.28-0.04c-1.28,0.68-2.41,1.66-3.56,2.56
		c-4,3.12-7.75,6.66-12.04,9.29c-7.47,4.58-15.26,8.64-22.96,12.83c-0.6,0.33-1.65,0.27-2.3-0.03c-2.76-1.29-5.41-2.81-8.17-4.11
		c-8.6-4.05-16.32-9.44-23.7-15.38c-2.04-1.64-3.97-3.43-6.07-4.98c-0.6-0.44-2.07-0.64-2.4-0.27c-0.56,0.63-0.87,1.87-0.67,2.69
		c0.31,1.27,1.09,2.44,1.78,3.59c4.6,7.75,9.45,15.32,15.74,21.83c6.98,7.22,15.05,13.06,23.46,18.44
		C41.49,102.69,41.97,102.8,42.46,103z"/>
</g>
</svg>
