<?xml version="1.0" encoding="utf-8"?>
<!-- Generator: Adobe Illustrator 23.0.2, SVG Export Plug-In . SVG Version: 6.00 Build 0)  -->
<svg version="1.1" id="Layer_1" xmlns="http://www.w3.org/2000/svg" xmlns:xlink="http://www.w3.org/1999/xlink" x="0px" y="0px"
	 viewBox="0 0 160 43" style="enable-background:new 0 0 160 43;" xml:space="preserve">
<style type="text/css">
	.st0{fill:#E82D2D;}
	.st1{fill:#FFFFFF;}
</style>
<g>
	<path class="st0" d="M138.37,0H21.63C9.69,0,0,9.63,0,21.5v0C0,33.37,9.69,43,21.63,43h116.73C150.31,43,160,33.37,160,21.5v0
		C160,9.63,150.31,0,138.37,0z"/>
</g>
<g>
	<path class="st1" d="M48.66,25.82v-9.56h3.72c0.65,0,1.25,0.11,1.8,0.32c0.55,0.22,1.02,0.53,1.41,0.93
		c0.39,0.4,0.7,0.89,0.92,1.47c0.22,0.58,0.33,1.23,0.33,1.96c0,0.73-0.1,1.39-0.3,1.99c-0.2,0.6-0.48,1.11-0.85,1.54
		c-0.37,0.43-0.81,0.76-1.32,0.99c-0.51,0.24-1.08,0.35-1.7,0.35H48.66z M52.28,24.2c0.88,0,1.52-0.27,1.91-0.81
		c0.4-0.54,0.59-1.36,0.59-2.44c0-0.54-0.05-1-0.15-1.38c-0.1-0.38-0.25-0.7-0.47-0.94c-0.22-0.25-0.49-0.42-0.83-0.53
		c-0.34-0.11-0.75-0.17-1.23-0.17h-1.49v6.28H52.28z"/>
	<path class="st1" d="M61.17,26.01c-0.58,0-1.1-0.09-1.55-0.27c-0.45-0.18-0.84-0.44-1.15-0.76c-0.31-0.33-0.55-0.72-0.72-1.18
		c-0.16-0.46-0.25-0.97-0.25-1.51c0-0.56,0.08-1.07,0.25-1.53c0.17-0.46,0.41-0.85,0.73-1.18c0.32-0.33,0.7-0.58,1.15-0.76
		c0.45-0.18,0.96-0.27,1.53-0.27c0.56,0,1.06,0.09,1.51,0.27c0.44,0.18,0.82,0.43,1.14,0.75c0.31,0.32,0.55,0.71,0.72,1.17
		c0.17,0.46,0.25,0.97,0.25,1.54c0,0.57-0.08,1.08-0.25,1.53c-0.17,0.46-0.41,0.85-0.72,1.17c-0.31,0.33-0.7,0.58-1.15,0.76
		C62.22,25.92,61.72,26.01,61.17,26.01z M61.17,24.44c1.15,0,1.72-0.72,1.72-2.16c0-1.43-0.57-2.15-1.72-2.15
		c-1.15,0-1.72,0.72-1.72,2.15C59.45,23.72,60.02,24.44,61.17,24.44z"/>
	<path class="st1" d="M71.04,25.82l-1.13-4.12l-1.13,4.12h-1.93l-2.03-7.08h1.98l1.16,4.55l0.99-4.55h1.91l1.12,4.55l1.09-4.55h1.94
		l-2.04,7.08H71.04z"/>
	<path class="st1" d="M80.24,25.82v-4.29c0-0.55-0.09-0.92-0.28-1.11c-0.18-0.19-0.5-0.29-0.94-0.29c-0.98,0-1.46,0.54-1.46,1.63
		v4.06h-1.88v-7.08h1.8v1.04c0.22-0.4,0.52-0.71,0.88-0.92c0.37-0.21,0.84-0.31,1.42-0.31c0.34,0,0.65,0.05,0.94,0.15
		c0.29,0.1,0.54,0.25,0.75,0.45c0.21,0.2,0.37,0.45,0.49,0.74c0.12,0.29,0.18,0.63,0.18,1.01v4.91H80.24z"/>
	<path class="st1" d="M83.13,25.82v-9.68h1.88v9.68H83.13z"/>
	<path class="st1" d="M89.49,26.01c-0.58,0-1.1-0.09-1.55-0.27c-0.45-0.18-0.84-0.44-1.15-0.76c-0.31-0.33-0.55-0.72-0.72-1.18
		c-0.16-0.46-0.25-0.97-0.25-1.51c0-0.56,0.08-1.07,0.25-1.53c0.17-0.46,0.41-0.85,0.73-1.18c0.32-0.33,0.7-0.58,1.15-0.76
		c0.45-0.18,0.96-0.27,1.53-0.27c0.56,0,1.06,0.09,1.51,0.27c0.44,0.18,0.82,0.43,1.14,0.75c0.31,0.32,0.55,0.71,0.72,1.17
		c0.17,0.46,0.25,0.97,0.25,1.54c0,0.57-0.08,1.08-0.25,1.53c-0.17,0.46-0.41,0.85-0.72,1.17c-0.31,0.33-0.7,0.58-1.15,0.76
		C90.55,25.92,90.04,26.01,89.49,26.01z M89.49,24.44c1.15,0,1.72-0.72,1.72-2.16c0-1.43-0.57-2.15-1.72-2.15
		c-1.15,0-1.72,0.72-1.72,2.15C87.77,23.72,88.34,24.44,89.49,24.44z"/>
	<path class="st1" d="M98.43,25.82c-0.06-0.18-0.1-0.39-0.12-0.63c-0.22,0.25-0.52,0.45-0.88,0.6c-0.37,0.15-0.79,0.22-1.27,0.22
		c-0.82,0-1.42-0.18-1.8-0.54c-0.38-0.36-0.57-0.83-0.57-1.4c0-0.51,0.08-0.91,0.25-1.22c0.16-0.3,0.39-0.54,0.68-0.71
		c0.29-0.17,0.63-0.3,1.04-0.38c0.4-0.08,0.84-0.16,1.31-0.22c0.47-0.07,0.79-0.16,0.96-0.27c0.16-0.11,0.25-0.29,0.25-0.54
		c0-0.23-0.11-0.41-0.33-0.54c-0.22-0.13-0.51-0.19-0.88-0.19c-0.44,0-0.75,0.1-0.93,0.29c-0.19,0.19-0.31,0.45-0.36,0.76h-1.75
		c0.01-0.37,0.07-0.7,0.18-1.01s0.29-0.57,0.54-0.79c0.25-0.22,0.57-0.39,0.96-0.51s0.88-0.18,1.45-0.18c0.56,0,1.04,0.06,1.43,0.19
		c0.39,0.13,0.71,0.31,0.94,0.54c0.24,0.24,0.41,0.53,0.51,0.88c0.11,0.35,0.16,0.75,0.16,1.19v4.48H98.43z M98.3,22.35
		c-0.1,0.1-0.24,0.17-0.42,0.23c-0.18,0.06-0.45,0.12-0.8,0.19c-0.54,0.11-0.91,0.24-1.12,0.4s-0.3,0.4-0.3,0.71
		c0,0.53,0.3,0.79,0.91,0.79c0.24,0,0.47-0.04,0.67-0.12c0.21-0.08,0.39-0.19,0.54-0.33c0.15-0.14,0.27-0.3,0.36-0.49
		c0.09-0.19,0.14-0.39,0.14-0.6L98.3,22.35z"/>
	<path class="st1" d="M106.13,25.82l-0.01-0.86c-0.43,0.7-1.1,1.05-1.98,1.05c-0.45,0-0.87-0.09-1.25-0.26
		c-0.38-0.17-0.7-0.42-0.97-0.75c-0.27-0.33-0.48-0.72-0.64-1.19c-0.15-0.47-0.23-1-0.23-1.6c0-0.54,0.06-1.03,0.2-1.48
		c0.13-0.45,0.32-0.83,0.57-1.16c0.25-0.33,0.56-0.58,0.92-0.76s0.78-0.27,1.24-0.27c0.88,0,1.58,0.37,2.12,1.11v-3.51h1.85v9.68
		H106.13z M104.56,24.49c0.45,0,0.83-0.19,1.14-0.56c0.3-0.37,0.46-0.86,0.46-1.47c0-1.54-0.53-2.3-1.58-2.3
		c-1.08,0-1.62,0.73-1.62,2.19c0,0.63,0.15,1.15,0.45,1.55C103.7,24.29,104.09,24.49,104.56,24.49z"/>
	<path class="st1" d="M120,25.82v-6.55l-1.8,6.55h-2l-1.78-6.52v6.52h-1.87v-9.56h2.96l1.74,7.01l1.74-7.01h2.9v9.56H120z"/>
	<path class="st1" d="M122.8,25.82v-9.56h4.24c0.47,0,0.9,0.08,1.27,0.24c0.38,0.16,0.7,0.38,0.97,0.66
		c0.27,0.28,0.48,0.61,0.62,0.99c0.14,0.37,0.22,0.78,0.22,1.21c0,0.43-0.07,0.83-0.22,1.2c-0.15,0.37-0.35,0.69-0.62,0.95
		c-0.27,0.26-0.59,0.47-0.97,0.62c-0.38,0.15-0.8,0.22-1.27,0.22h-2.23v3.47H122.8z M126.73,20.73c0.58,0,1-0.13,1.25-0.4
		c0.26-0.26,0.38-0.61,0.38-1.03c0-0.4-0.13-0.73-0.38-0.99c-0.26-0.26-0.67-0.39-1.25-0.39h-1.91v2.81H126.73z"/>
	<path class="st1" d="M133.04,20.22c0.41,0,0.74-0.04,0.99-0.11c0.26-0.07,0.45-0.17,0.59-0.29c0.14-0.12,0.24-0.26,0.29-0.42
		c0.05-0.16,0.08-0.32,0.08-0.5c0-0.48-0.1-0.84-0.3-1.09c-0.2-0.25-0.51-0.37-0.95-0.37c-0.37,0-0.67,0.14-0.91,0.41
		c-0.24,0.27-0.36,0.66-0.36,1.16h-1.75c0-0.46,0.08-0.88,0.23-1.25c0.15-0.37,0.36-0.7,0.64-0.96s0.6-0.48,0.99-0.63
		c0.38-0.15,0.8-0.22,1.25-0.22c0.42,0,0.8,0.06,1.17,0.19c0.36,0.12,0.68,0.3,0.95,0.53c0.27,0.23,0.48,0.51,0.64,0.83
		c0.16,0.32,0.23,0.67,0.23,1.06c0,0.43-0.09,0.84-0.28,1.23c-0.19,0.39-0.47,0.69-0.85,0.91c0.46,0.19,0.82,0.48,1.07,0.87
		c0.25,0.39,0.37,0.88,0.37,1.49c0,0.48-0.08,0.91-0.25,1.3c-0.16,0.38-0.4,0.71-0.7,0.97c-0.3,0.26-0.66,0.47-1.07,0.61
		c-0.42,0.14-0.87,0.22-1.38,0.22c-1,0-1.78-0.28-2.33-0.84c-0.55-0.56-0.83-1.32-0.83-2.3h1.81c0,0.56,0.12,0.96,0.36,1.22
		c0.24,0.25,0.6,0.38,1.07,0.38c0.4,0,0.72-0.14,0.99-0.41c0.26-0.27,0.39-0.66,0.39-1.17c0-0.56-0.16-0.95-0.48-1.17
		c-0.32-0.22-0.88-0.33-1.66-0.33V20.22z"/>
</g>
<g>
	<g>
		<path class="st1" d="M31.08,21.6c-1.43,0.48-2.24,1.89-1.81,3.14c0.21,0.63,0.72,1.13,1.38,1.38c0.31,0.12,0.65,0.18,0.99,0.18
			c0.33,0,0.67-0.05,0.99-0.17c1.07-0.36,1.79-1.24,1.91-2.19h0.01v-0.11c0.01-0.11,0.01-0.21,0-0.32v-6.64
			c0-0.39-0.17-0.76-0.47-1.01c-0.3-0.25-0.7-0.36-1.09-0.29l-5.89,1.02c-0.64,0.11-1.1,0.66-1.1,1.3v4.83
			c-0.55-0.14-1.14-0.13-1.7,0.06c-0.66,0.22-1.22,0.65-1.56,1.21c-0.37,0.6-0.46,1.3-0.25,1.93c0.21,0.63,0.72,1.13,1.38,1.38
			c0.31,0.12,0.65,0.18,0.99,0.18c0.33,0,0.66-0.05,0.99-0.17c0.66-0.22,1.22-0.65,1.56-1.21c0.18-0.29,0.29-0.61,0.34-0.93h0.01
			v-0.07c0.02-0.16,0.02-0.32,0-0.48V20.1l5.05-0.86v2.3C32.26,21.4,31.67,21.4,31.08,21.6z"/>
	</g>
</g>
</svg>
