<?xml version="1.0" encoding="utf-8"?>
<!-- Generator: Adobe Illustrator 23.0.2, SVG Export Plug-In . SVG Version: 6.00 Build 0)  -->
<svg version="1.1" id="Layer_1" xmlns="http://www.w3.org/2000/svg" xmlns:xlink="http://www.w3.org/1999/xlink" x="0px" y="0px"
	 viewBox="0 0 106 35" style="enable-background:new 0 0 106 35;" xml:space="preserve">
<style type="text/css">
	.st0{fill:#FFFFFF;}
	.st1{fill:#E82D2D;}
</style>
<g>
	<path class="st0" d="M88.8,0H17.2C7.7,0,0,7.84,0,17.5v0C0,27.16,7.7,35,17.2,35H88.8c9.5,0,17.2-7.84,17.2-17.5v0
		C106,7.84,98.3,0,88.8,0z"/>
</g>
<g>
	<path class="st1" d="M42.05,22.36V12.11h3.9c0.68,0,1.3,0.12,1.88,0.35s1.07,0.56,1.48,1c0.41,0.43,0.73,0.96,0.96,1.57
		c0.23,0.62,0.35,1.32,0.35,2.1c0,0.78-0.1,1.49-0.31,2.14c-0.21,0.64-0.5,1.19-0.89,1.65c-0.39,0.46-0.85,0.81-1.38,1.06
		c-0.54,0.25-1.13,0.38-1.77,0.38H42.05z M45.84,20.61c0.92,0,1.59-0.29,2-0.87c0.41-0.58,0.62-1.45,0.62-2.61
		c0-0.58-0.05-1.07-0.15-1.48c-0.1-0.41-0.27-0.75-0.49-1.01c-0.23-0.26-0.52-0.45-0.87-0.57c-0.35-0.12-0.78-0.18-1.29-0.18H44.1
		v6.73H45.84z"/>
	<path class="st1" d="M55.15,22.56c-0.61,0-1.15-0.1-1.62-0.29c-0.48-0.19-0.88-0.47-1.21-0.82c-0.33-0.35-0.58-0.77-0.75-1.27
		c-0.17-0.49-0.26-1.03-0.26-1.62c0-0.6,0.09-1.14,0.27-1.63s0.43-0.92,0.77-1.27c0.33-0.35,0.74-0.62,1.2-0.81
		c0.47-0.19,1-0.28,1.6-0.28c0.59,0,1.11,0.09,1.58,0.28c0.46,0.19,0.86,0.46,1.19,0.8c0.33,0.35,0.58,0.76,0.76,1.26
		c0.18,0.49,0.27,1.04,0.27,1.65c0,0.61-0.09,1.16-0.27,1.64c-0.18,0.49-0.43,0.91-0.76,1.26c-0.33,0.35-0.73,0.62-1.2,0.81
		C56.25,22.46,55.73,22.56,55.15,22.56z M55.15,20.87c1.2,0,1.8-0.77,1.8-2.32c0-1.53-0.6-2.3-1.8-2.3c-1.2,0-1.8,0.77-1.8,2.3
		C53.35,20.1,53.95,20.87,55.15,20.87z"/>
	<path class="st1" d="M64.62,22.36v-4.6c0-0.59-0.1-0.98-0.29-1.19c-0.19-0.21-0.52-0.31-0.99-0.31c-1.02,0-1.53,0.58-1.53,1.74
		v4.35h-1.97v-7.59h1.88v1.11c0.23-0.43,0.54-0.76,0.92-0.98c0.38-0.22,0.88-0.33,1.49-0.33c0.35,0,0.68,0.05,0.99,0.16
		c0.3,0.11,0.56,0.27,0.78,0.49c0.22,0.22,0.39,0.48,0.52,0.79c0.13,0.31,0.19,0.68,0.19,1.09v5.26H64.62z"/>
	<path class="st1" d="M72.32,22.36c-0.06-0.19-0.1-0.42-0.12-0.68c-0.23,0.27-0.54,0.48-0.93,0.64s-0.83,0.24-1.33,0.24
		c-0.86,0-1.49-0.19-1.89-0.58c-0.4-0.39-0.6-0.89-0.6-1.5c0-0.55,0.09-0.98,0.26-1.3c0.17-0.32,0.41-0.58,0.71-0.76
		c0.3-0.19,0.67-0.32,1.08-0.41c0.42-0.09,0.88-0.17,1.37-0.24c0.49-0.07,0.83-0.17,1-0.28c0.17-0.12,0.26-0.31,0.26-0.58
		c0-0.25-0.11-0.44-0.34-0.58c-0.23-0.14-0.53-0.21-0.92-0.21c-0.46,0-0.78,0.1-0.98,0.31c-0.2,0.21-0.32,0.48-0.37,0.82H67.7
		c0.01-0.39,0.07-0.75,0.19-1.08c0.12-0.33,0.3-0.61,0.56-0.85c0.26-0.24,0.59-0.42,1.01-0.55c0.41-0.13,0.92-0.19,1.52-0.19
		c0.59,0,1.08,0.07,1.49,0.2c0.41,0.13,0.74,0.33,0.99,0.58c0.25,0.25,0.43,0.57,0.54,0.94c0.11,0.37,0.17,0.8,0.17,1.27v4.8H72.32z
		 M72.19,18.64c-0.1,0.1-0.25,0.19-0.44,0.25c-0.19,0.06-0.47,0.13-0.83,0.2c-0.57,0.11-0.96,0.26-1.17,0.43
		c-0.21,0.18-0.32,0.43-0.32,0.76c0,0.57,0.32,0.85,0.96,0.85c0.25,0,0.49-0.04,0.71-0.13c0.22-0.09,0.4-0.21,0.56-0.36
		s0.28-0.32,0.38-0.52c0.1-0.2,0.14-0.41,0.14-0.64L72.19,18.64z"/>
	<path class="st1" d="M79.44,17.36h1.84v2.16c0,0.4-0.06,0.78-0.17,1.15c-0.12,0.37-0.3,0.69-0.55,0.97
		c-0.25,0.28-0.56,0.51-0.94,0.67c-0.38,0.16-0.83,0.25-1.36,0.25c-0.55,0-1.01-0.08-1.39-0.25c-0.39-0.16-0.7-0.39-0.95-0.66
		c-0.25-0.28-0.43-0.6-0.54-0.97c-0.11-0.37-0.17-0.76-0.17-1.17v-6.79h1.94v2.05h4.13v1.42h-4.13v3.12c0,0.48,0.09,0.86,0.27,1.12
		c0.18,0.26,0.47,0.39,0.87,0.39c0.39,0,0.68-0.13,0.87-0.39c0.19-0.26,0.28-0.62,0.28-1.1V17.36z"/>
	<path class="st1" d="M84.06,19.08c0.03,0.58,0.19,1.03,0.49,1.37c0.3,0.34,0.69,0.51,1.18,0.51c0.32,0,0.61-0.07,0.86-0.22
		c0.25-0.15,0.41-0.36,0.48-0.63h2.03c-0.23,0.78-0.64,1.38-1.21,1.81c-0.58,0.42-1.26,0.63-2.06,0.63c-2.49,0-3.73-1.38-3.73-4.14
		c0-0.59,0.08-1.12,0.24-1.59c0.16-0.47,0.4-0.88,0.71-1.22c0.31-0.34,0.68-0.6,1.13-0.78c0.44-0.18,0.95-0.27,1.53-0.27
		c1.15,0,2.02,0.37,2.62,1.13c0.59,0.75,0.89,1.88,0.89,3.39H84.06z M87.17,17.82c-0.01-0.28-0.06-0.52-0.14-0.73
		c-0.09-0.21-0.2-0.39-0.34-0.53c-0.14-0.14-0.3-0.24-0.49-0.31c-0.18-0.07-0.37-0.1-0.56-0.1c-0.39,0-0.74,0.15-1.02,0.44
		c-0.29,0.29-0.45,0.7-0.49,1.23H87.17z"/>
</g>
<g>
	<path class="st1" d="M28.31,14.68c-0.3-1.05-1.16-1.87-2.2-2.11c-1.66-0.38-3.17,0.62-3.62,2.09c-0.04,0.14-0.23,0.14-0.28,0
		c-0.45-1.48-1.96-2.48-3.63-2.09c-1.08,0.25-1.95,1.13-2.22,2.22c-0.3,1.21,0.11,2.33,0.88,3.06l4.52,4.94
		c0.32,0.35,0.87,0.35,1.19,0l4.6-5.01c0,0,0.01-0.01,0.01-0.01l0.13-0.15h-0.02C28.32,16.87,28.63,15.82,28.31,14.68z"/>
</g>
</svg>
