<?xml version="1.0" encoding="utf-8"?>
<!-- Generator: Adobe Illustrator 23.0.2, SVG Export Plug-In . SVG Version: 6.00 Build 0)  -->
<svg version="1.1" id="Layer_1" xmlns="http://www.w3.org/2000/svg" xmlns:xlink="http://www.w3.org/1999/xlink" x="0px" y="0px"
	 viewBox="0 0 160 43" style="enable-background:new 0 0 160 43;" xml:space="preserve">
<style type="text/css">
	.st0{fill:#E82D2D;}
	.st1{fill:#FFFFFF;}
	.st2{fill:#FFFFFF;stroke:#E82D2D;stroke-width:0.15;stroke-miterlimit:10;}
</style>
<g>
	<g>
		<path class="st0" d="M138.38,0H21.74C9.8,0,0.12,9.63,0.12,21.5v0C0.12,33.37,9.8,43,21.74,43h116.65
			C150.32,43,160,33.37,160,21.5v0C160,9.63,150.32,0,138.38,0z"/>
	</g>
	<g>
		<path class="st1" d="M44.21,25.64v-9.56h3.72c0.65,0,1.24,0.11,1.8,0.32c0.55,0.22,1.02,0.53,1.41,0.93
			c0.39,0.4,0.7,0.89,0.92,1.47c0.22,0.58,0.33,1.23,0.33,1.96c0,0.73-0.1,1.39-0.3,1.99c-0.2,0.6-0.48,1.11-0.85,1.54
			c-0.37,0.43-0.81,0.76-1.32,0.99c-0.51,0.24-1.08,0.35-1.69,0.35H44.21z M47.83,24.01c0.88,0,1.52-0.27,1.91-0.81
			c0.4-0.54,0.59-1.36,0.59-2.44c0-0.54-0.05-1-0.15-1.38c-0.1-0.38-0.25-0.7-0.47-0.94c-0.22-0.25-0.49-0.42-0.83-0.53
			c-0.34-0.11-0.75-0.17-1.23-0.17h-1.49v6.28H47.83z"/>
		<path class="st1" d="M56.72,25.83c-0.58,0-1.1-0.09-1.55-0.27c-0.45-0.18-0.84-0.44-1.15-0.76c-0.31-0.33-0.55-0.72-0.72-1.18
			c-0.16-0.46-0.25-0.97-0.25-1.51c0-0.56,0.08-1.07,0.25-1.53c0.17-0.46,0.41-0.85,0.73-1.18c0.32-0.33,0.7-0.58,1.15-0.76
			c0.45-0.18,0.96-0.27,1.53-0.27c0.56,0,1.06,0.09,1.51,0.27c0.44,0.18,0.82,0.43,1.14,0.75c0.31,0.32,0.55,0.71,0.72,1.17
			c0.17,0.46,0.25,0.97,0.25,1.54s-0.08,1.08-0.25,1.53c-0.17,0.46-0.41,0.85-0.72,1.17c-0.31,0.33-0.69,0.58-1.14,0.76
			C57.77,25.74,57.27,25.83,56.72,25.83z M56.72,24.26c1.15,0,1.72-0.72,1.72-2.16c0-1.43-0.57-2.15-1.72-2.15
			c-1.15,0-1.72,0.72-1.72,2.15C54.99,23.54,55.57,24.26,56.72,24.26z"/>
		<path class="st1" d="M66.58,25.64l-1.13-4.12l-1.13,4.12h-1.93l-2.03-7.08h1.98l1.16,4.55l0.98-4.55h1.91l1.11,4.55l1.09-4.55
			h1.94l-2.04,7.08H66.58z"/>
		<path class="st1" d="M75.77,25.64v-4.29c0-0.55-0.09-0.92-0.27-1.11c-0.18-0.19-0.5-0.29-0.94-0.29c-0.97,0-1.46,0.54-1.46,1.63
			v4.06h-1.88v-7.08H73v1.04c0.22-0.4,0.52-0.71,0.88-0.92c0.37-0.21,0.84-0.31,1.42-0.31c0.34,0,0.65,0.05,0.94,0.15
			c0.29,0.1,0.54,0.25,0.75,0.45c0.21,0.2,0.37,0.45,0.49,0.74s0.18,0.63,0.18,1.01v4.91H75.77z"/>
		<path class="st1" d="M78.66,25.64v-9.68h1.88v9.68H78.66z"/>
		<path class="st1" d="M85.02,25.83c-0.58,0-1.1-0.09-1.55-0.27c-0.45-0.18-0.84-0.44-1.15-0.76c-0.31-0.33-0.55-0.72-0.72-1.18
			c-0.16-0.46-0.25-0.97-0.25-1.51c0-0.56,0.08-1.07,0.25-1.53c0.17-0.46,0.41-0.85,0.73-1.18c0.32-0.33,0.7-0.58,1.15-0.76
			c0.45-0.18,0.96-0.27,1.53-0.27c0.56,0,1.06,0.09,1.51,0.27c0.44,0.18,0.82,0.43,1.14,0.75c0.31,0.32,0.55,0.71,0.72,1.17
			c0.17,0.46,0.25,0.97,0.25,1.54s-0.08,1.08-0.25,1.53c-0.17,0.46-0.41,0.85-0.72,1.17c-0.31,0.33-0.69,0.58-1.14,0.76
			C86.07,25.74,85.57,25.83,85.02,25.83z M85.02,24.26c1.15,0,1.72-0.72,1.72-2.16c0-1.43-0.57-2.15-1.72-2.15
			c-1.15,0-1.72,0.72-1.72,2.15C83.3,23.54,83.87,24.26,85.02,24.26z"/>
		<path class="st1" d="M93.95,25.64c-0.06-0.18-0.1-0.39-0.12-0.63c-0.22,0.25-0.52,0.45-0.88,0.6c-0.37,0.15-0.79,0.22-1.27,0.22
			c-0.82,0-1.42-0.18-1.8-0.54c-0.38-0.36-0.57-0.83-0.57-1.4c0-0.51,0.08-0.91,0.25-1.22c0.16-0.3,0.39-0.54,0.68-0.71
			c0.29-0.17,0.63-0.3,1.04-0.38c0.4-0.08,0.84-0.16,1.31-0.22c0.47-0.07,0.79-0.16,0.96-0.27c0.16-0.11,0.25-0.29,0.25-0.54
			c0-0.23-0.11-0.41-0.33-0.54c-0.22-0.13-0.51-0.19-0.88-0.19c-0.43,0-0.75,0.1-0.93,0.29c-0.19,0.19-0.31,0.45-0.35,0.76h-1.75
			c0.01-0.37,0.07-0.7,0.18-1.01c0.11-0.31,0.29-0.57,0.54-0.79c0.25-0.22,0.57-0.39,0.96-0.51s0.88-0.18,1.45-0.18
			c0.56,0,1.04,0.06,1.43,0.19s0.7,0.31,0.94,0.54c0.24,0.24,0.41,0.53,0.51,0.88c0.11,0.35,0.16,0.75,0.16,1.19v4.48H93.95z
			 M93.82,22.17c-0.1,0.1-0.24,0.17-0.42,0.23c-0.18,0.06-0.45,0.12-0.8,0.19c-0.54,0.11-0.91,0.24-1.11,0.4
			c-0.2,0.16-0.3,0.4-0.3,0.71c0,0.53,0.3,0.79,0.91,0.79c0.24,0,0.46-0.04,0.67-0.12c0.21-0.08,0.38-0.19,0.54-0.33
			c0.15-0.14,0.27-0.3,0.36-0.49c0.09-0.19,0.14-0.39,0.14-0.6L93.82,22.17z"/>
		<path class="st1" d="M101.64,25.64l-0.01-0.86c-0.43,0.7-1.1,1.05-1.98,1.05c-0.45,0-0.87-0.09-1.24-0.26
			c-0.38-0.17-0.7-0.42-0.97-0.75c-0.27-0.33-0.48-0.72-0.64-1.19c-0.15-0.47-0.23-1-0.23-1.6c0-0.54,0.06-1.03,0.19-1.48
			c0.13-0.45,0.32-0.83,0.57-1.16c0.25-0.33,0.56-0.58,0.92-0.76c0.36-0.18,0.77-0.27,1.24-0.27c0.88,0,1.58,0.37,2.11,1.11v-3.51
			h1.85v9.68H101.64z M100.07,24.3c0.45,0,0.83-0.19,1.14-0.56c0.3-0.37,0.46-0.86,0.46-1.47c0-1.54-0.53-2.3-1.58-2.3
			c-1.08,0-1.62,0.73-1.62,2.19c0,0.63,0.15,1.15,0.45,1.55C99.22,24.1,99.6,24.3,100.07,24.3z"/>
		<path class="st1" d="M111.03,25.64l-3.26-9.56h2.14l2.1,6.71l2.08-6.71h2.08l-3.26,9.56H111.03z"/>
		<path class="st1" d="M116.91,17.71v-1.74h1.88v1.74H116.91z M116.91,25.64v-7.08h1.88v7.08H116.91z"/>
		<path class="st1" d="M124.76,25.64l-0.01-0.86c-0.43,0.7-1.1,1.05-1.98,1.05c-0.45,0-0.87-0.09-1.24-0.26
			c-0.38-0.17-0.7-0.42-0.97-0.75c-0.27-0.33-0.48-0.72-0.64-1.19c-0.15-0.47-0.23-1-0.23-1.6c0-0.54,0.06-1.03,0.19-1.48
			c0.13-0.45,0.32-0.83,0.57-1.16c0.25-0.33,0.56-0.58,0.92-0.76c0.36-0.18,0.77-0.27,1.24-0.27c0.88,0,1.58,0.37,2.11,1.11v-3.51
			h1.85v9.68H124.76z M123.19,24.3c0.45,0,0.83-0.19,1.14-0.56c0.3-0.37,0.46-0.86,0.46-1.47c0-1.54-0.53-2.3-1.58-2.3
			c-1.08,0-1.62,0.73-1.62,2.19c0,0.63,0.15,1.15,0.45,1.55C122.34,24.1,122.72,24.3,123.19,24.3z"/>
		<path class="st1" d="M129.29,22.59c0.03,0.54,0.19,0.96,0.47,1.28c0.28,0.32,0.66,0.47,1.12,0.47c0.31,0,0.58-0.07,0.82-0.21
			c0.24-0.14,0.39-0.33,0.46-0.58h1.94c-0.22,0.73-0.61,1.29-1.16,1.68c-0.55,0.39-1.21,0.59-1.97,0.59c-2.37,0-3.56-1.29-3.56-3.86
			c0-0.55,0.08-1.04,0.23-1.48c0.15-0.44,0.38-0.82,0.67-1.14s0.65-0.56,1.08-0.73c0.42-0.17,0.91-0.25,1.46-0.25
			c1.1,0,1.93,0.35,2.5,1.05c0.56,0.7,0.85,1.76,0.85,3.17H129.29z M132.26,21.41c-0.01-0.26-0.06-0.49-0.14-0.68
			c-0.08-0.2-0.19-0.36-0.33-0.49c-0.13-0.13-0.29-0.22-0.46-0.29c-0.17-0.06-0.35-0.09-0.54-0.09c-0.38,0-0.7,0.14-0.98,0.41
			c-0.27,0.27-0.43,0.66-0.47,1.14H132.26z"/>
		<path class="st1" d="M138.52,25.83c-0.58,0-1.1-0.09-1.55-0.27c-0.45-0.18-0.84-0.44-1.15-0.76c-0.31-0.33-0.55-0.72-0.72-1.18
			c-0.16-0.46-0.25-0.97-0.25-1.51c0-0.56,0.08-1.07,0.25-1.53c0.17-0.46,0.41-0.85,0.73-1.18c0.32-0.33,0.7-0.58,1.15-0.76
			c0.45-0.18,0.96-0.27,1.53-0.27c0.56,0,1.06,0.09,1.51,0.27c0.44,0.18,0.82,0.43,1.14,0.75c0.31,0.32,0.55,0.71,0.72,1.17
			c0.17,0.46,0.25,0.97,0.25,1.54s-0.08,1.08-0.25,1.53c-0.17,0.46-0.41,0.85-0.72,1.17c-0.31,0.33-0.69,0.58-1.14,0.76
			C139.57,25.74,139.07,25.83,138.52,25.83z M138.52,24.26c1.15,0,1.72-0.72,1.72-2.16c0-1.43-0.57-2.15-1.72-2.15
			c-1.15,0-1.72,0.72-1.72,2.15C136.8,23.54,137.38,24.26,138.52,24.26z"/>
	</g>
	<path class="st2" d="M21.61,15.45c-0.71-0.41-1.57-0.41-2.28,0c-0.71,0.41-1.14,1.15-1.14,1.97v8.17c0,0.82,0.43,1.56,1.14,1.97
		c0.36,0.2,0.75,0.31,1.14,0.31c0.39,0,0.78-0.1,1.14-0.31l7.12-4.09c0.71-0.41,1.14-1.15,1.14-1.97c0-0.82-0.43-1.55-1.14-1.97
		L21.61,15.45z"/>
</g>
</svg>
